<svg width="67" height="67" viewBox="0 0 67 67" fill="none" xmlns="http://www.w3.org/2000/svg">
<path d="M33.5053 4.23197e-07C40.1305 0.00105347 46.6067 1.96656 52.1149 5.64799C57.6231 9.32942 61.9161 14.5615 64.451 20.6826C66.9858 26.8037 67.6488 33.539 66.356 40.0368C65.0633 46.5347 61.8728 52.5033 57.1881 57.188C52.5033 61.8728 46.5347 65.0633 40.0368 66.356C33.539 67.6488 26.8037 66.9858 20.6826 64.451C14.5615 61.9161 9.32942 57.6231 5.64799 52.1149C1.96656 46.6067 0.00105347 40.1305 4.23208e-07 33.5053C-0.000698961 29.1051 0.865451 24.7479 2.549 20.6826C4.23255 16.6172 6.70053 12.9233 9.81192 9.81192C12.9233 6.70052 16.6172 4.23257 20.6826 2.54902C24.7479 0.86547 29.1051 -0.000698961 33.5053 4.23197e-07ZM33.5053 13.3957C29.5301 13.3957 25.6442 14.5745 22.3389 16.783C19.0337 18.9915 16.4576 22.1305 14.9363 25.8031C13.4151 29.4757 13.0171 33.517 13.7926 37.4158C14.5681 41.3146 16.4823 44.8959 19.2932 47.7068C22.1041 50.5176 25.6854 52.4319 29.5842 53.2074C33.483 53.9829 37.5242 53.5849 41.1968 52.0637C44.8694 50.5424 48.0085 47.9663 50.217 44.661C52.4255 41.3558 53.6042 37.4699 53.6042 33.4947C53.6042 28.1641 51.4867 23.0519 47.7174 19.2826C43.9481 15.5133 38.8359 13.3957 33.5053 13.3957Z" fill="black"/>
<circle cx="33.5" cy="33.5" r="4.5" fill="black"/>
</svg>
