<svg width="402" height="326" viewBox="0 0 402 326" fill="none" xmlns="http://www.w3.org/2000/svg">
<path d="M336.09 238.512C338.976 240.09 341.69 241.571 344.273 243.265C349.682 246.808 354.022 251.762 356.822 257.592C358.584 261.011 359.957 264.618 360.915 268.344C361.635 271.414 362.371 274.629 361.921 277.859C361.492 280.942 362.68 283.073 364.891 285.224C368.167 288.412 370.791 292.216 373.55 295.886C375.13 298.039 376.501 300.338 377.642 302.753C378.669 304.661 379.311 306.754 379.531 308.91C379.911 312.05 379.411 315.233 378.086 318.105C377.663 318.792 377.186 319.444 376.66 320.055C376.413 320.385 376.16 320.708 375.908 321.035C376.345 321.13 376.794 321.164 377.241 321.135C380.159 320.529 383.163 321.056 386.041 320.616C390.763 319.893 395.47 320.487 400.173 320.227C400.939 320.185 401.518 320.371 401.647 321.24C401.816 322.375 400.69 322.411 400.222 322.477C397.212 322.905 394.18 323.207 391.148 323.446C388.293 323.671 385.373 323.478 382.586 324.012C380.275 324.349 377.937 324.466 375.604 324.362C361.215 324.408 346.812 323.976 332.442 324.5C318.184 325.021 303.936 325.087 289.698 324.7C275.519 324.321 261.351 324.644 247.181 324.412C244.863 324.374 242.513 324.99 240.221 324.795C230.284 323.953 220.321 324.924 210.406 324.282C202.836 323.792 195.291 324.147 187.737 323.95C186.254 324.001 184.776 324.146 183.312 324.384C181.912 324.528 180.453 324.038 179.106 324.827C178.877 324.961 178.506 324.843 178.194 324.846C166.178 324.999 154.161 325.199 142.144 325.293C132.834 325.366 123.504 325.686 114.218 325.214C101.962 324.592 89.7176 325.106 77.4716 324.828C76.6747 324.769 75.8883 324.611 75.1306 324.357C74.9636 324.31 74.7386 323.787 74.8076 323.704C75.1466 323.294 75.5076 322.989 74.5826 322.997C73.2746 323.008 71.9656 322.977 70.6586 323.004C63.6436 323.15 56.6016 322.99 49.6216 323.568C44.5866 323.985 39.5556 323.453 34.5766 323.991C29.5506 324.534 24.5056 323.919 19.5346 324.468C13.7346 325.108 7.95456 324.598 2.17356 324.845C1.86656 324.858 1.55756 324.836 1.25056 324.845C0.403563 324.879 -0.137437 324.438 0.0305627 323.645C0.116622 323.392 0.262305 323.163 0.455319 322.978C0.648332 322.793 0.883014 322.657 1.13956 322.582C3.06256 322.324 5.00456 322.182 6.94456 322.09C8.47956 322.017 10.0226 322.111 11.5606 322.069C16.5756 321.932 21.6266 322.087 26.5936 321.522C31.3226 320.984 36.0186 321.337 40.7246 321.164C46.2756 320.964 51.8646 321.164 57.3736 320.595C62.4096 320.071 67.4156 320.462 72.4266 320.224C72.7175 320.195 73.0066 320.15 73.2926 320.09C73.1366 319.872 73.0286 319.573 72.8176 319.449C69.3786 317.43 67.7176 314.079 66.5176 310.549C65.7306 308.235 65.6176 305.701 65.0506 303.3C64.3246 300.214 64.4906 297.019 63.7276 293.933C63.4258 292.324 63.2586 290.693 63.2276 289.056C63.1972 286.654 63.0165 284.256 62.6866 281.876C62.4102 279.792 62.2782 277.691 62.2916 275.589C62.0706 272.247 63.1016 271.3 66.4276 270.432C68.9613 269.924 71.5276 269.594 74.1076 269.446C75.6569 269.269 77.2089 269.117 78.7636 268.988C79.4126 268.934 79.5266 268.713 79.2376 268.135C75.8666 261.414 73.7626 254.235 71.5156 247.095C69.8156 241.695 68.1396 236.295 66.8946 230.771C66.3286 228.257 65.5126 225.801 64.8806 223.301C64.4206 221.48 64.0356 219.638 63.6976 217.791C63.6655 217.277 63.44 216.794 63.0664 216.439C62.6928 216.084 62.1988 215.884 61.6836 215.878C57.4086 215.622 53.2735 214.259 49.6836 211.924C46.5555 209.705 44.2015 206.561 42.9526 202.935C41.4196 199.163 40.7829 195.087 41.0926 191.027C41.2022 188.168 42.3198 185.441 44.2476 183.327C47.7626 179.727 51.0386 181.527 53.0946 184.648C54.5496 186.86 54.7196 189.385 55.3526 191.798C56.3376 195.554 57.1156 199.368 58.1936 203.098C58.5772 204.467 59.4053 205.67 60.5476 206.517C60.7786 206.685 60.9846 206.887 61.2026 207.074C61.3066 206.724 61.3631 206.363 61.3706 205.998C61.2646 205.056 61.0756 204.124 60.9256 203.187C60.338 200.322 59.9004 197.428 59.6146 194.517C59.3712 192.264 59.4645 189.987 59.8916 187.761C60.3286 185.951 60.2736 184.015 60.8826 182.155C61.7352 179.312 63.2168 176.697 65.2176 174.504C70.1726 169.325 77.5906 169.204 82.5226 173.995C85.3495 176.768 87.1835 180.396 87.7406 184.317C88.1406 186.724 88.4126 189.13 88.6816 191.552C89.2902 196.172 89.5859 200.828 89.5666 205.488C89.5606 205.722 89.7826 205.962 89.8986 206.199C90.1619 206.087 90.413 205.948 90.6476 205.784C92.1826 204.464 93.0586 202.654 94.1856 201.026C94.7694 200.161 95.165 199.183 95.3465 198.155C95.5281 197.128 95.4917 196.074 95.2396 195.061C94.7867 192.521 94.8633 189.914 95.4646 187.405C95.9256 185.599 95.5326 183.58 95.5586 181.657C95.7407 178.655 96.1647 175.673 96.8266 172.74C97.1995 169.883 98.034 167.106 99.2976 164.517C100.857 161.354 102.914 158.461 105.39 155.949C107.63 153.84 109.574 151.393 112.361 149.919C114.443 148.819 116.524 147.719 118.627 146.655C119.127 146.402 119.749 146.387 120.263 146.155C121.51 145.583 121.463 145.555 121.418 143.829C121.372 141.906 121.372 139.983 121.418 138.059C121.502 137.019 121.175 135.988 120.507 135.188C116.387 130.205 114.215 124.122 111.274 118.476C108.971 114.215 107.05 109.759 105.533 105.159C104.861 103.015 105.827 101.584 108.083 101.392C111.344 101.115 114.612 100.879 117.855 100.452C121.737 99.9399 125.582 99.198 129.517 99.052C131.399 98.982 133.255 98.36 135.141 98.212C135.646 98.1992 136.14 98.0546 136.572 97.7926C137.005 97.5306 137.362 97.1601 137.608 96.718C140.533 92.484 143.541 88.2819 147.436 84.8569C152.774 80.1372 158.762 76.2084 165.217 73.1909C169.122 71.2928 173.165 69.6913 177.311 68.3999C178.499 68.1982 179.705 68.1142 180.911 68.149C181.395 68.109 182.277 67.968 182.283 67.843C182.317 67.058 182.745 65.9429 181.783 65.5749C180.799 65.1942 179.917 64.5893 179.208 63.8081C178.499 63.0269 177.982 62.091 177.698 61.0749C177.581 60.7429 177.06 60.525 176.691 60.315C176.018 59.9933 175.432 59.5174 174.978 58.9261C174.525 58.3348 174.217 57.6448 174.081 56.9122C173.944 56.1796 173.983 55.4251 174.193 54.7102C174.403 53.9952 174.779 53.3401 175.291 52.798C175.591 52.428 175.991 51.698 175.839 51.466C174.674 49.694 175.827 48.0539 176.469 46.7599C177.246 45.1949 178.904 44.06 180.229 42.783C180.565 42.511 180.976 42.3492 181.408 42.3199C183.53 42.1029 183.703 42.157 184.153 40.02C184.721 37.326 186.688 36.3279 188.928 35.8889C192.183 35.2509 195.211 39.0329 194.164 42.2409C193.92 43.1331 193.529 43.978 193.005 44.74C192.697 45.0615 192.52 45.4855 192.506 45.9301C192.493 46.3748 192.645 46.8086 192.933 47.1479C193.648 48.5982 193.999 50.2013 193.954 51.8179C194.192 55.1599 193.239 58.334 192.935 61.593C192.82 62.2647 192.543 62.8982 192.127 63.4384C191.712 63.9787 191.171 64.4093 190.552 64.6929C188.707 65.6399 186.666 66.493 184.51 65.434C184.172 65.2727 183.906 64.9904 183.767 64.643C183.567 63.92 184.16 64.0689 184.599 63.9779C185.866 63.7139 187.131 63.4239 188.372 63.0599C190.59 62.4089 190.888 61.681 190.703 59.2929C190.544 57.2369 190.312 55.073 191.608 53.229C191.866 52.9618 192.031 52.6183 192.078 52.2498C192.125 51.8813 192.051 51.5074 191.869 51.184C191.639 50.8482 191.302 50.6001 190.913 50.4803C190.524 50.3604 190.107 50.3758 189.728 50.524C188.721 50.787 187.284 51.124 186.81 49.345C186.66 48.781 186.079 48.484 185.394 49.145C184.05 50.4792 182.4 51.4633 180.588 52.011C179.413 52.355 179.043 53.182 179.112 54.52C179.178 55.5956 179.178 56.6743 179.112 57.75C179.045 58.6375 179.189 59.5282 179.531 60.3501C179.872 61.1719 180.403 61.9019 181.079 62.481C182.66 63.974 183.995 65.5599 184.242 67.8809C184.359 68.9809 186.89 70.5949 187.923 70.4629C189.589 70.2499 191.504 68.555 191.566 67.143C191.583 66.753 191.089 66.2999 191.173 65.9609C191.371 65.3504 191.676 64.7797 192.073 64.2749C192.417 64.3469 192.736 64.508 192.999 64.742C194.234 66.092 195.863 66.0709 197.379 65.778C200.394 65.183 203.496 65.1748 206.515 65.7539C207.037 65.8325 207.566 65.8619 208.095 65.8419C215.193 65.9549 222.222 67.2656 228.884 69.7189C234.808 71.8486 240.462 74.668 245.728 78.119C249.853 80.6361 253.758 83.4969 257.402 86.671C260.403 89.2512 263.268 91.9859 265.986 94.8639C269.138 98.6382 271.762 102.824 273.786 107.306C276.441 112.742 278.695 118.365 280.529 124.131C281.714 127.745 282.673 131.43 283.4 135.164C283.731 137.853 283.913 140.559 283.944 143.269C284.018 144.269 282.702 145.259 283.754 146.169C284.54 146.651 285.375 147.049 286.245 147.357C288.645 148.637 291.091 149.839 293.383 151.288C296.943 153.757 299.912 156.985 302.076 160.739C303.606 163.4 304.835 166.223 305.74 169.156C306.249 170.804 306.665 172.479 306.985 174.174C307.451 177.102 307.72 180.063 308.041 183.009C308.673 188.809 308 194.603 308.441 200.369C308.888 206.232 308.479 212.121 308.971 217.946C309.377 222.746 309.158 227.523 309.284 232.308C309.314 233.452 309.858 233.697 310.623 233.408C313.458 232.338 316.123 233.408 318.833 233.899C320.536 234.284 322.259 234.583 323.993 234.793C327.294 235.14 330.509 236.063 333.493 237.519C334.343 237.902 335.214 238.235 336.102 238.519L336.09 238.512ZM145.414 212.888C145.723 212.457 146.096 212.075 146.52 211.756C148.012 210.923 149.552 210.179 151.133 209.528C151.956 209.205 152.671 208.755 152.288 207.984C151.582 206.561 152.497 205.292 152.343 203.955C152.022 201.16 151.615 198.37 151.443 195.565C151.175 191.25 151.579 186.929 151.03 182.591C150.498 178.391 151.03 174.12 150.601 169.855C150.183 165.695 150.323 161.487 149.633 157.312C149.295 154.391 149.121 151.453 149.111 148.512C149.099 148.282 149.18 148.019 149.093 147.827C148.938 147.563 148.753 147.319 148.542 147.098C148.387 147.309 148.271 147.546 148.2 147.798C148.023 150.041 147.9 152.287 147.719 154.53C147.596 156.085 147.467 157.642 147.25 159.185C146.997 160.985 146.595 162.772 146.35 164.577C146.125 166.277 146.099 167.997 145.857 169.69C145.457 172.508 144.897 175.304 144.503 178.123C144.125 180.833 143.895 183.562 143.553 186.278C143.417 187.356 143.159 188.419 142.953 189.488C142.389 192.409 141.822 195.329 141.253 198.249C140.816 200.525 140.398 202.804 139.927 205.074C139.487 207.196 138.743 209.413 139.839 211.618C139.964 211.868 139.757 212.328 139.621 212.657C139.31 213.544 138.664 214.275 137.821 214.691C136.978 215.107 136.006 215.175 135.113 214.882C134.264 214.637 133.386 214.511 132.503 214.507C130.954 214.329 129.397 214.213 127.85 214.022C127.503 213.934 127.177 213.782 126.887 213.574C125.607 212.845 125.572 211.494 126.893 210.827C128.286 210.127 129.744 209.538 131.2 208.971C131.89 208.815 132.498 208.408 132.905 207.828C133.312 207.249 133.488 206.538 133.4 205.836C133.406 203.22 133.452 200.603 133.393 197.988C133.129 186.281 133.901 174.566 132.979 162.86C132.592 157.941 132.616 152.989 132.486 148.05C132.433 146.039 132.278 145.858 130.3 146.184C129.888 146.252 129.5 146.606 129.1 146.614C125.091 146.689 121.554 148.476 118 149.939C112.765 152.226 108.242 155.88 104.905 160.517C102.339 163.914 100.526 167.817 99.5866 171.969C98.5236 176.323 98.4586 180.724 97.9356 185.092C97.7092 188.393 97.6875 191.704 97.8706 195.008C97.9139 195.358 97.9988 195.703 98.1236 196.033C98.4455 195.878 98.7587 195.705 99.0616 195.515C99.6127 195.025 100.302 194.717 101.035 194.635C101.768 194.553 102.509 194.7 103.155 195.056C103.903 195.366 104.546 195.888 105.003 196.557C105.46 197.227 105.713 198.015 105.73 198.825C105.836 201.776 104.414 204.167 102.864 206.405C101.429 208.258 99.8618 210.003 98.1736 211.628C97.9233 211.848 97.7225 212.119 97.5846 212.422C97.4467 212.725 97.3748 213.055 97.3736 213.388C97.4126 221.775 97.3936 230.161 97.4146 238.548C97.4146 238.843 97.6686 239.137 97.8046 239.431C97.9956 239.181 98.2046 238.942 98.3756 238.68C99.6266 236.78 99.2946 234.637 99.2136 232.58C99.0828 229.784 99.9533 227.033 101.669 224.821C103.708 222.129 107.635 221.199 109.704 223.821C111.012 225.368 111.855 227.255 112.135 229.262C112.638 233.315 111.842 237.424 109.862 240.996C108.021 244.541 104.86 247.221 101.062 248.457C100.254 248.76 99.4158 248.971 98.5616 249.088C97.8826 249.143 97.8536 249.426 97.8546 249.94C97.8636 255.865 97.8546 261.789 97.8816 267.714C97.8816 267.982 98.1576 268.455 98.3536 268.482C99.8976 268.695 101.454 268.897 103.006 268.961C104.33 269 105.622 269.38 106.756 270.065C107.89 270.749 108.828 271.715 109.48 272.869C110.438 274.324 110.014 275.515 109.93 276.964C109.613 282.431 109.581 287.913 109.392 293.388C109.298 296.096 109.17 298.808 108.911 301.504C108.767 303.004 108.288 304.477 108.028 305.974C107.774 307.429 107.47 308.963 108.506 310.224C109.172 310.91 109.91 311.524 110.706 312.055C113.216 314.241 116.127 315.919 119.277 316.995C121.06 317.516 123.037 317.732 124.567 318.671C126.189 319.578 128.053 319.96 129.902 319.765C130.284 319.723 130.671 319.727 131.053 319.776C132.409 320.076 132.938 319.17 133.353 318.19C133.994 316.69 134.502 315.125 135.171 313.635C136.862 309.871 138.599 306.129 140.34 302.388C142.172 298.453 144.033 294.531 145.876 290.6C146.163 289.846 146.62 289.169 147.211 288.621C147.803 288.073 148.512 287.669 149.286 287.44C150.321 287.162 151.339 286.823 152.368 286.523C155.624 285.575 159.043 285.384 162.276 284.259C164.437 283.507 166.442 284.743 167.087 287.047C167.536 288.647 167.716 290.327 168.046 291.964C168.092 292.463 168.258 292.943 168.529 293.364C168.973 293.766 169.47 294.106 170.005 294.376C170.273 293.894 170.747 293.422 170.774 292.927C170.868 291.162 170.83 289.389 170.803 287.62C170.753 287.257 170.844 286.888 171.058 286.59C171.272 286.293 171.592 286.089 171.953 286.02C173.544 285.341 175.218 284.874 176.932 284.631C178.797 284.465 179.432 284.663 180.048 286.485C180.23 286.871 180.378 287.273 180.49 287.685C180.604 288.502 181.018 288.918 181.83 288.834C183.001 288.712 184.163 288.51 185.33 288.385C188.356 288.063 191.381 287.731 194.413 287.477C195.374 287.396 195.765 286.997 195.744 286.072C195.724 285.226 195.744 284.379 195.744 283.533C195.744 281.228 195.976 280.887 198.139 280.225C198.966 279.975 199.806 279.772 200.656 279.615C204.014 278.984 207.439 278.592 210.706 277.647C211.158 277.455 211.65 277.375 212.14 277.414C212.63 277.454 213.103 277.612 213.519 277.874C214.275 278.55 214.823 279.428 215.1 280.404C215.828 282.652 216.409 284.95 216.965 287.249C217.223 288.316 217.742 288.498 218.741 288.266C220.226 287.896 221.736 287.636 223.26 287.487C224.803 287.361 224.823 287.463 224.366 286.049C224.004 285.198 223.706 284.321 223.476 283.425C223.205 281.81 223.05 280.179 223.011 278.542C222.997 278.083 223.074 277.626 223.239 277.197C223.403 276.768 223.651 276.376 223.969 276.044C224.286 275.712 224.666 275.447 225.087 275.263C225.508 275.079 225.961 274.981 226.421 274.974C227.732 274.867 229.032 274.654 230.309 274.337C232.592 273.75 233.594 274.3 234.052 276.686C234.273 277.92 234.429 279.166 234.518 280.417C234.671 282.286 235.512 283.1 237.165 282.836C238.965 282.548 240.748 282.136 242.556 281.936C245.884 281.563 249.219 281.212 252.561 281.049C252.972 281.06 253.38 280.969 253.748 280.783C254.116 280.598 254.432 280.324 254.668 279.986C256.301 277.674 257.801 275.266 259.477 272.986C260.237 271.895 261.218 270.976 262.357 270.29C263.495 269.603 264.766 269.164 266.086 269.001C267.786 268.788 269.498 268.701 271.202 268.524C271.815 268.471 272.395 268.223 272.858 267.818C273.322 267.412 273.643 266.869 273.777 266.268C274.053 265.157 274.458 264.073 274.677 262.953C275.708 257.684 278.153 252.795 281.749 248.808C285.622 244.527 290.284 241.033 295.48 238.517C298.485 236.871 301.679 235.595 304.992 234.717C305.247 234.672 305.491 234.577 305.71 234.437C305.928 234.298 306.117 234.116 306.264 233.902C306.412 233.689 306.515 233.448 306.569 233.195C306.622 232.941 306.625 232.679 306.577 232.424C306.226 224.876 306.857 217.324 306.165 209.757C305.611 203.703 306.395 197.572 305.665 191.484C305.662 190.001 305.798 188.521 306.071 187.064C306.176 183.51 305.732 179.962 304.753 176.544C304.078 173.015 303.16 169.538 302.005 166.136C300.006 160.819 296.399 156.257 291.686 153.086C288.514 151.004 285.021 149.457 281.347 148.509C279.736 148.059 278.088 147.756 276.423 147.604C275.509 147.518 274.551 148.018 273.623 147.997C269.454 147.902 265.287 147.597 261.123 147.582C245.123 147.53 229.115 147.562 213.111 147.555C212.435 147.607 211.756 147.556 211.096 147.403C210.587 147.21 210.046 147.119 209.503 147.136C208.959 147.154 208.425 147.278 207.93 147.503C206.353 148.196 204.688 148.667 202.982 148.903C199.511 149.351 196.012 149.593 192.52 149.858C189.894 150.058 187.275 149.848 184.62 150.241C181.12 150.759 177.528 150.626 173.976 150.796C171.192 150.93 168.41 151.119 165.626 151.242C164.782 151.279 164.448 151.642 164.339 152.464C164.08 154.42 163.683 156.364 163.445 158.318C163.087 161.262 162.811 164.218 162.511 167.167C162.345 168.795 162.322 170.448 162.02 172.049C161.448 174.733 161.147 177.468 161.12 180.212C161.161 180.672 161.158 181.135 161.109 181.595C160.58 184.906 160.274 188.25 160.194 191.602C160.059 194.078 159.961 196.56 159.714 199.026C159.514 200.987 159.587 203.187 158.686 204.807C157.726 206.535 157.963 208.136 157.925 209.807C157.973 211.06 158.116 212.307 158.353 213.539C158.415 213.96 158.309 214.39 158.056 214.733C157.804 215.076 157.426 215.306 157.005 215.371C155.086 215.679 153.147 215.841 151.205 215.857C149.952 215.802 148.705 215.658 147.473 215.427C146.251 215.271 145.673 214.686 145.412 212.889L145.414 212.888ZM165.726 292.299C165.418 290.811 165.172 289.305 164.759 287.846C164.651 287.628 164.492 287.44 164.294 287.298C164.096 287.157 163.867 287.067 163.626 287.036C162.528 287.115 161.436 287.253 160.354 287.449C156.575 288.002 152.863 288.937 149.274 290.239C149.02 290.326 148.829 290.648 148.647 290.889C146.647 293.547 145.682 296.745 144.158 299.653C142.05 303.676 140.413 307.944 138.537 312.09C137.481 314.424 136.352 316.725 135.253 319.04C135.118 319.324 134.288 319.694 135.392 319.777C137.023 319.9 138.648 320.177 140.28 320.215C151.909 320.507 163.537 319.966 175.18 320.615C186.943 321.266 198.745 320.298 210.535 321.098C218.758 321.656 227.017 321.178 235.273 321.493C247.95 321.977 260.659 321.626 273.354 321.605C274.005 321.551 274.651 321.434 275.28 321.254C277.928 320.648 280.534 319.868 283.08 318.92C285.729 317.989 288.201 316.613 290.388 314.852C290.701 314.61 291.063 314.44 291.449 314.353C291.835 314.267 292.235 314.267 292.622 314.352C294.493 314.504 295.985 315.583 297.622 316.241C302.701 318.226 307.945 319.757 313.295 320.817C316.318 321.448 319.134 320.817 321.924 320.524C325.115 320.086 328.236 319.23 331.205 317.98C337.027 315.881 342.354 312.605 346.855 308.357C347.626 307.6 347.383 307.042 346.955 306.407C345.015 303.513 342.978 300.681 341.105 297.744C338.905 294.288 336.738 290.799 334.75 287.217C334.517 286.637 334.089 286.155 333.541 285.855C332.993 285.555 332.357 285.454 331.743 285.57C331.006 285.655 330.26 285.554 329.572 285.278C326.088 283.728 323.298 281.578 322.587 277.454C322.359 276.442 322.366 275.392 322.606 274.384C322.846 273.375 323.313 272.435 323.972 271.634C324.59 270.948 325.246 270.297 325.938 269.685C327.383 268.46 329.178 267.723 331.067 267.578C335.14 267.251 337.742 269.66 340.135 272.399C340.524 273.012 340.714 273.731 340.678 274.457C340.752 276.176 340.63 277.897 340.314 279.588C340.092 281.112 339.384 282.524 338.295 283.612C336.945 284.912 336.937 284.886 337.808 286.637C338.061 287.145 338.178 287.729 338.477 288.204C341.513 293.029 344.567 297.842 347.639 302.644C348.264 303.619 349.028 304.505 349.727 305.432C350.277 304.496 350.881 303.592 351.536 302.725C355.286 298.266 356.983 292.85 358.691 287.45C359.551 284.824 359.869 282.051 359.625 279.298C359.421 278.14 359.278 276.971 359.197 275.798C359.232 272.598 358.235 269.616 357.464 266.58C356.256 262.468 354.477 258.546 352.18 254.928C350.949 252.974 349.476 251.183 347.797 249.598C346.251 248.097 344.584 246.726 342.814 245.498C339.147 242.723 335.078 240.524 330.749 238.977C328.311 238.168 325.862 237.385 323.39 236.686C321.952 236.185 320.452 235.886 318.933 235.796C316.295 235.698 313.654 235.801 311.033 236.103C306.437 236.905 301.976 238.349 297.783 240.393C294.839 241.942 292.012 243.701 289.323 245.657C285.919 248.051 283.007 251.076 280.744 254.568C278.414 257.868 277.644 261.897 276.53 265.732C275.93 267.803 275.785 270.313 272.572 269.951C272.472 269.94 272.372 270.228 272.245 270.251C270.312 270.609 268.378 270.959 266.439 271.283C264.902 271.54 263.377 271.774 262.38 273.196C260.957 275.227 259.549 277.272 258.051 279.247C256.651 281.097 254.998 282.86 252.635 283.24C248.624 283.885 244.568 284.273 240.519 284.648C238.764 284.811 236.981 284.64 235.213 284.688C234.97 284.72 234.724 284.704 234.488 284.64C234.253 284.576 234.032 284.466 233.839 284.316C233.646 284.166 233.485 283.98 233.365 283.767C233.245 283.554 233.168 283.32 233.14 283.077C232.804 281.518 232.447 279.958 232.231 278.377C232.038 276.967 231.731 276.641 230.28 276.825C229.112 276.974 227.948 277.161 226.78 277.278C225.507 277.406 225.21 277.658 225.301 278.967C225.393 280.293 225.569 281.614 225.758 282.93C225.891 283.94 226.08 284.941 226.325 285.93C226.925 288.254 226.872 288.539 224.764 289.55C223.958 289.858 223.123 290.079 222.271 290.212C221.707 290.345 221.124 290.406 220.571 290.56C218.333 291.177 215.998 290.583 215.166 288.969C214.594 287.743 214.124 286.472 213.761 285.169C213.261 283.604 212.885 281.995 212.336 280.448C212.136 279.877 211.855 279.448 210.836 279.859C209.103 280.387 207.328 280.765 205.531 280.988C203.41 281.43 201.28 281.844 199.185 282.388C197.785 282.752 197.536 283.374 197.937 284.781C198.137 285.359 198.194 285.977 198.102 286.582C198.01 287.187 197.772 287.761 197.409 288.253C197.045 288.745 196.568 289.142 196.017 289.408C195.466 289.674 194.858 289.802 194.247 289.781C192.531 289.752 190.818 289.912 189.139 290.259C186.381 290.873 183.563 291.175 180.739 291.159C180.251 291.207 179.763 291.066 179.376 290.765C178.99 290.464 178.734 290.025 178.662 289.54C178.487 289.073 178.339 288.596 178.219 288.112C178.212 287.923 178.162 287.738 178.071 287.572C177.98 287.406 177.852 287.264 177.697 287.156C177.541 287.049 177.363 286.979 177.176 286.953C176.988 286.926 176.798 286.944 176.619 287.005C175.767 287.143 174.928 287.353 174.113 287.635C173.636 287.722 173.212 287.993 172.934 288.39C172.656 288.787 172.545 289.278 172.627 289.756C172.775 291.356 172.601 292.988 172.689 294.599C172.734 295.419 172.453 295.854 171.715 296.008C170.021 296.363 168.253 296.649 166.915 295.251C166.311 294.364 165.908 293.356 165.735 292.298L165.726 292.299ZM236.373 106.698C238.439 108.764 240.618 110.732 242.539 112.926C244.351 114.947 245.979 117.128 247.403 119.44C248.943 122.167 250.343 124.97 251.597 127.84C253.822 132.613 255.397 137.573 255.284 142.912C255.232 145.38 255.721 145.277 257.757 145.261C263.216 145.217 268.675 145.253 274.134 145.241C275.621 145.241 277.127 145.27 278.591 145.341C280.658 145.441 280.641 145.697 280.701 143.672C280.776 140.468 280.46 137.266 279.761 134.138C279.092 131.038 278.501 127.914 277.593 124.884C276.488 121.129 275.196 117.431 273.721 113.806C272.473 110.786 270.821 107.931 269.316 105.021C267.646 101.689 265.502 98.6163 262.95 95.8999C260.362 92.9703 257.577 90.2209 254.615 87.671C250.58 84.497 246.144 81.8319 241.873 78.9579C237.532 76.0611 232.845 73.7214 227.922 71.994C224.286 70.6191 220.523 69.6091 216.688 68.979C215.198 68.763 213.678 68.9189 212.264 68.5639C208.795 67.6919 205.302 68.402 201.833 68.164C201.657 68.152 201.468 68.336 201.285 68.429C201.402 68.6555 201.543 68.8696 201.704 69.0679C202.544 69.7818 203.322 70.5657 204.03 71.4109C206.178 74.6209 207.802 78.1525 208.84 81.873C209.893 85.1849 210.603 88.5966 210.959 92.054C210.945 92.5409 211.118 93.0146 211.442 93.3786C211.766 93.7425 212.216 93.9694 212.702 94.013C213.691 94.1968 214.668 94.4399 215.629 94.7409C220.949 96.6448 226.003 99.2235 230.668 102.414C232.568 103.646 234.323 105.114 236.374 106.701L236.373 106.698ZM192.045 70.2279C189.289 72.8659 186.465 73.028 183.691 70.615C182.952 69.973 182.491 69.8149 181.579 70.4579C180.233 71.4011 178.771 72.1658 177.23 72.733C175.741 73.1963 174.363 73.9585 173.18 74.973C171.997 75.9875 171.033 77.2329 170.348 78.6329C168.948 81.5909 167.599 84.571 166.184 87.52C164.713 90.585 164.904 91.09 168.116 92.158C168.185 92.181 168.275 92.142 168.345 92.164C169.161 92.3792 169.904 92.8084 170.499 93.4074C171.094 94.0064 171.517 94.7533 171.727 95.5709C172.459 98.3271 172.922 101.148 173.108 103.994C173.299 106.311 173.419 108.634 173.585 110.953C173.6 111.153 173.676 111.445 173.82 111.527C173.996 111.627 174.087 112.427 174.52 111.621C176.01 108.848 177.72 106.186 179.073 103.351C180.284 101.092 181.332 98.7482 182.209 96.339C182.966 93.924 184.467 91.7489 185.566 89.4319C186.175 88.1489 186.566 86.703 187.138 85.477C188.191 82.9145 189.68 80.5534 191.538 78.498C192.205 77.7407 193.047 77.1579 193.991 76.8001C194.935 76.4423 195.952 76.3204 196.954 76.4449C198.846 76.6349 202.016 78.9449 202.168 80.6239C202.463 82.451 202.449 84.3147 202.126 86.1369C201.306 89.4654 199.951 92.6385 198.113 95.5319C196.793 97.5449 195.197 99.3799 193.92 101.418C191.71 104.944 189.636 108.556 187.536 112.15C186.205 114.689 184.488 117.006 182.446 119.018C180.943 120.291 179.341 121.442 177.655 122.461C174.628 124.409 171.545 126.269 168.496 128.184C168.296 128.309 168.191 128.584 168.041 128.784C168.212 128.884 168.408 129.11 168.551 129.084C170.917 128.592 173.275 127.578 175.645 129.077C175.665 129.089 175.745 128.972 175.805 128.961C178.953 128.389 182.094 127.774 185.252 127.269C188.512 126.747 191.779 126.242 195.061 125.898C197.828 125.609 200.627 125.631 203.401 125.389C204.72 125.256 206.052 125.395 207.316 125.795C208.58 126.196 209.748 126.851 210.75 127.72C210.917 127.858 211.077 128.005 211.24 128.147C211.336 127.956 211.4 127.75 211.43 127.538C211.388 125.977 211.267 124.42 211.068 122.872C210.62 119.592 210.693 116.243 210.51 112.925C210.386 110.68 210.45 108.448 210.17 106.181C209.78 103.022 209.546 99.8289 209.18 96.6519C208.953 94.6789 208.471 92.7449 208.286 90.804C207.901 87.3503 207.09 83.9577 205.87 80.7039C204.082 75.6689 201.677 71.096 196.179 69.054C193.724 68.142 193.779 68.0039 192.05 70.2359L192.045 70.2279ZM67.1586 301.301C67.5 304.975 68.3571 308.582 69.7046 312.017C70.8366 314.703 72.3746 317.066 75.1266 318.39C76.2816 318.946 77.4016 319.582 78.5806 320.078C79.0763 320.236 79.6028 320.272 80.1156 320.184C80.8326 320.107 81.5356 319.801 82.2476 319.791C85.4006 319.746 88.5536 319.765 91.7066 319.774C93.2156 319.774 94.6916 319.964 95.8066 318.448C96.4795 317.798 97.2888 317.307 98.1756 317.01C99.9736 316.229 101.554 315.021 102.778 313.49C104.003 311.959 104.835 310.153 105.202 308.227C106.013 303.982 106.639 299.686 107.045 295.383C107.421 291.392 107.355 287.36 107.581 283.352C107.651 282.118 107.255 281.852 106.087 281.889C99.6916 282.102 93.2866 281.577 86.8936 282.333C84.6936 282.593 82.4366 282.326 80.2076 282.384C75.6556 282.504 71.1076 282.672 66.5556 282.841C65.1976 282.891 64.9476 283.328 65.2856 284.675C65.4233 285.325 65.5069 285.985 65.5356 286.649C65.7016 288.738 65.6916 290.854 66.0356 292.911C66.4956 295.621 66.9356 298.317 67.1516 301.303L67.1586 301.301ZM154.18 201.81C154.28 203.695 154.394 203.85 155.74 203.888C156.968 203.922 157.314 203.516 157.41 201.922C157.419 201.769 157.41 201.614 157.41 201.46C157.562 197.677 157.716 193.893 157.87 190.109C157.858 189.955 157.859 189.801 157.875 189.648C158.508 186.897 158.817 184.081 158.794 181.258C158.762 180.952 158.765 180.643 158.802 180.337C159.386 177.655 159.7 174.921 159.74 172.177C159.692 170.462 159.863 168.748 160.251 167.077C160.636 165.723 160.278 164.324 160.704 163.115C161.386 161.178 160.998 159.168 161.515 157.23C161.772 155.693 161.948 154.144 162.042 152.589C162.274 151.644 162.786 150.791 163.51 150.142C164.235 149.492 165.138 149.076 166.103 148.947C167.885 148.779 169.666 148.574 171.452 148.495C175.772 148.303 180.096 148.186 184.418 148.017C187.894 147.881 191.37 147.717 194.845 147.56C194.998 147.572 195.152 147.57 195.306 147.555C197.897 146.908 200.563 146.605 203.234 146.655C204.261 146.689 205.284 146.506 206.236 146.118C207.187 145.729 208.046 145.144 208.756 144.4C210.024 143.149 210.964 141.605 211.494 139.904C212.023 138.204 212.125 136.399 211.791 134.649C211.374 131.989 210.154 129.405 207.211 128.343C205.705 127.799 204.401 126.866 202.511 127.615C200.984 128.221 199.135 128.015 197.429 128.168C195.715 128.177 194.007 128.355 192.329 128.699C190.529 129.238 188.697 129.073 186.909 129.51C185.409 129.876 183.801 129.774 182.266 130.033C178.972 130.59 175.703 131.304 172.407 131.846C169.148 132.382 165.851 132.696 162.601 133.275C159.901 133.745 157.23 134.366 154.601 135.136C153.522 135.526 152.587 136.234 151.92 137.168C151.253 138.102 150.886 139.216 150.868 140.363C151.098 145.323 150.968 150.281 151.811 155.221C152.311 158.688 152.631 162.179 152.769 165.68C153 169.305 152.644 172.931 153.177 176.58C153.677 180.006 153.277 183.512 153.606 187.007C154.055 191.755 153.511 196.581 154.173 201.807L154.18 201.81ZM251.605 138.095C251.597 137.576 251.537 137.059 251.428 136.552C250.589 133.905 249.835 131.219 248.796 128.652C247.786 126.295 246.651 123.995 245.396 121.759C243.921 119.222 242.196 116.838 240.247 114.644C237.731 111.48 234.764 108.705 231.44 106.406C229.279 104.962 227.04 103.636 224.907 102.149C221.155 99.5299 216.871 98.178 212.587 96.817C212.43 96.767 212.006 97.1269 211.924 97.3699C211.842 97.7458 211.834 98.1339 211.899 98.513C212.149 101.696 212.299 104.882 212.772 108.054C213.143 110.571 212.855 113.135 213.186 115.709C213.697 119.673 213.6 123.717 213.735 127.728C213.779 129.033 213.709 130.342 213.757 131.647C213.778 132.219 214.057 132.784 214.057 133.354C214.127 135.154 214.099 136.957 213.973 138.754C213.789 140.629 212.666 142.199 211.897 143.879C211.723 144.258 211.605 144.663 211.462 145.057C211.826 144.949 212.199 144.868 212.576 144.816C213.187 144.773 213.802 144.796 214.416 144.796H248.084C248.621 144.769 249.16 144.773 249.697 144.807C250.714 144.924 252.061 145.578 252.66 145.152C253.67 144.432 252.721 143.138 252.506 142.105C252.259 140.913 251.906 139.744 251.597 138.105L251.605 138.095ZM148.415 112.472C146.515 108.723 144.582 104.989 142.728 101.217C142.211 100.165 141.761 99.6659 140.395 99.9499C137.93 100.404 135.443 100.726 132.945 100.916C130.699 100.979 128.459 101.164 126.234 101.471C124.734 101.789 123.176 101.471 121.818 101.924C119.647 102.645 117.418 102.161 115.238 102.7C113.096 103.052 110.93 103.234 108.76 103.246C107.76 103.328 107.266 104.046 107.653 104.935C108.759 107.476 109.874 110.016 111.076 112.512C112.467 115.399 114.12 118.171 115.361 121.118C116.944 124.878 118.823 128.458 120.761 132.039C121.738 133.839 123.013 133.819 124.472 133.679C126.356 133.498 128.214 133.061 130.091 132.795C132.496 132.453 134.904 132.118 137.321 131.876C140.879 131.519 144.444 131.218 148.01 130.95C150.71 130.75 153.416 130.565 156.123 130.512C157.181 130.491 157.103 129.821 156.913 129.345C156.599 128.555 155.956 127.902 155.58 127.129C153.248 122.329 150.951 117.514 148.412 112.473L148.415 112.472ZM134.792 144.098C134.992 147.722 134.492 151.351 135.192 154.988C135.629 157.246 135.365 159.609 135.621 161.944C136.101 166.303 136.114 170.722 136.156 175.118C136.229 182.804 136.192 190.492 136.156 198.178C136.156 199.114 135.775 200.046 135.745 200.986C135.802 201.709 135.923 202.426 136.105 203.128C136.316 204.548 137.405 203.654 138.075 203.838C138.284 203.524 138.417 203.165 138.465 202.791C138.559 201.04 138.861 199.307 139.365 197.628C139.858 195.649 140.025 193.589 140.331 191.564C140.517 190.333 140.662 189.096 140.887 187.872C141.452 184.806 142.121 181.757 142.618 178.68C143.029 176.134 143.218 173.552 143.573 170.996C143.989 168.029 144.635 165.087 144.901 162.109C145.118 159.679 145.414 157.283 145.837 154.88C146.437 151.48 146.791 148.042 147.264 144.622C147.302 144.346 147.384 143.898 147.548 143.844C149.056 143.351 148.533 142.113 148.648 141.084C148.91 138.809 149.211 136.607 151.213 134.968C152.125 134.255 153.131 133.671 154.202 133.23C154.402 133.141 154.496 132.83 154.639 132.619C154.392 132.537 154.134 132.361 153.899 132.388C151.557 132.655 149.226 133.088 146.878 133.21C144.441 133.333 141.995 133.478 139.871 134.681C138.11 135.681 136.019 136.575 135.471 138.839C135.131 140.575 134.903 142.331 134.79 144.097L134.792 144.098ZM376.719 313.074C376.873 312.907 377.147 312.751 377.163 312.574C377.471 309.773 376.984 306.942 375.757 304.406C373.748 300.555 371.378 296.903 368.68 293.499C366.6 290.82 364.507 288.152 362.401 285.493C362.284 285.344 361.977 285.135 361.942 285.164C361.737 285.315 361.581 285.524 361.496 285.764C360.929 288.865 360.026 291.896 358.805 294.802C357.217 298.673 355.06 302.284 352.405 305.517C351.115 306.983 351.065 307.751 352.527 309.175C354.919 311.503 357.279 313.885 359.853 316.001C362.715 318.547 366.442 319.904 370.272 319.794C372.001 319.71 373.633 318.966 374.831 317.716C376.029 316.466 376.703 314.804 376.714 313.072L376.719 313.074ZM141.028 97.6979C141.956 97.8633 142.823 98.2774 143.535 98.8962C144.247 99.515 144.777 100.315 145.071 101.212C146.001 103.371 147.041 105.481 148.188 107.533C149.095 109.312 150.019 111.083 150.96 112.845C151.621 114.08 151.596 114.028 152.511 113.017C153.419 111.87 154.464 110.838 155.624 109.945C158.817 107.809 161.12 104.58 162.101 100.865C162.713 98.5084 163.777 96.2929 165.233 94.341C166.006 93.387 165.706 93.265 164.833 92.841C164.457 92.7067 164.113 92.4957 163.823 92.2215C163.534 91.9473 163.304 91.6157 163.15 91.248C162.995 90.8803 162.918 90.4844 162.925 90.0855C162.931 89.6866 163.021 89.2934 163.188 88.931C163.782 87.3314 164.485 85.7745 165.293 84.2709C167.167 81.1359 167.657 77.2509 170.518 74.6609C170.608 74.5612 170.689 74.4527 170.759 74.337C170.567 74.2419 170.359 74.1842 170.146 74.1669C169.865 74.2201 169.595 74.3173 169.346 74.455C166.457 75.845 163.501 77.0549 160.71 78.6999C156.678 81.095 152.905 83.9003 149.451 87.0709C146.775 89.7151 144.257 92.5146 141.911 95.455C141.355 96.0714 141.04 96.8666 141.022 97.6959L141.028 97.6979ZM83.7786 192.343C84.0096 195.017 84.3696 197.687 84.4486 200.365C84.8216 213.005 83.6666 225.683 85.3906 238.291C85.7196 240.699 85.8656 243.142 86.3496 245.517C87.1496 249.467 88.1696 253.373 89.0836 257.301C89.2966 258.218 89.4236 259.156 89.6646 260.065C89.7246 260.29 90.0766 260.437 90.2936 260.62C90.3536 260.414 90.4936 260.193 90.4586 260.004C90.2673 259.386 90.1248 258.755 90.0326 258.115C89.9846 255.27 89.9226 252.415 90.0496 249.578C90.1267 248.913 90.4575 248.303 90.9732 247.875C91.4889 247.448 92.1495 247.236 92.8176 247.284C93.7378 247.209 94.6629 247.218 95.5816 247.31C97.0396 247.561 97.8966 246.736 98.6396 245.772C99.2421 244.966 99.7501 244.094 100.154 243.172C101.235 240.83 102.039 238.369 102.547 235.84C103.134 233.313 103.416 230.726 103.387 228.132C103.376 227.892 103.167 227.66 103.049 227.425C102.859 227.587 102.56 227.715 102.496 227.918C102.092 228.991 101.787 230.098 101.584 231.226C101.325 233.303 101.284 235.407 101.084 237.492C100.792 240.472 96.7406 243.578 93.8086 243.123C92.1296 242.863 90.9866 242.029 90.9496 240.894C90.9482 238.564 90.8096 236.236 90.5346 233.923C90.1236 231.179 90.1656 228.367 90.0146 225.584C90.0453 225.355 90.0412 225.123 90.0026 224.896C88.9136 222.247 89.5606 219.577 90.1556 217.008C90.2626 216.404 90.5117 215.834 90.8824 215.345C91.2531 214.856 91.7347 214.463 92.2876 214.197C93.4471 213.703 94.4074 212.834 95.0146 211.729C95.9822 209.354 96.8139 206.926 97.5056 204.457C97.9646 203.028 98.3976 201.589 98.7596 200.134C98.781 199.694 98.7231 199.254 98.5886 198.834C98.2287 199.096 97.9053 199.405 97.6266 199.753C97.0336 200.728 96.5986 201.805 95.9636 202.753C94.3926 205.089 92.8116 207.423 90.3026 208.92C89.1246 209.62 87.8946 209.182 87.7126 207.856C87.5216 206.463 87.3356 205.065 87.2546 203.663C87.0766 200.574 87.1836 197.49 86.8936 194.383C86.621 190.781 86.1038 187.202 85.3456 183.671C84.7317 180.418 83.0468 177.465 80.5596 175.281C80.357 175.151 80.1394 175.047 79.9116 174.97C79.8434 175.18 79.8269 175.403 79.8637 175.621C79.9004 175.838 79.9892 176.044 80.1226 176.22C82.2596 181.343 83.4965 186.796 83.7786 192.34V192.343ZM63.4646 213.581C64.1576 214.204 65.2546 214.71 65.4746 215.47C66.6926 219.67 67.6486 223.953 68.7856 228.181C70.2166 233.502 71.5936 238.845 73.2506 244.097C75.4776 251.158 77.9506 258.141 80.3096 265.162C80.6496 266.177 81.4726 267.028 81.2986 268.247C81.2756 268.405 82.1216 268.922 82.4656 268.847C83.0086 268.722 82.9176 268.281 82.6656 267.713C81.9397 266.09 81.3151 264.423 80.7956 262.723C79.5162 258.557 78.2829 254.377 77.0956 250.182C76.2726 247.282 75.5466 244.363 74.7766 241.452C74.0066 238.541 73.1766 235.644 72.4906 232.713C72.0606 230.87 71.8706 228.971 71.5396 227.103C71.1686 225.009 70.9166 222.872 70.4986 220.819C70.0046 218.395 69.7546 215.936 69.2986 213.513C68.8102 210.511 68.4874 207.484 68.3316 204.447C68.1016 201.441 67.8726 198.423 67.8866 195.412C67.9046 191.476 68.0936 187.537 68.3496 183.612C68.4496 182.112 69.1386 180.641 69.1796 179.146C69.2031 177.755 69.53 176.386 70.1376 175.135C70.2256 174.952 70.0206 174.594 69.8786 174.361C69.6696 174.348 69.4631 174.41 69.2956 174.536C67.4026 176.113 65.7992 178.008 64.5576 180.136C63.0271 183.047 62.2638 186.301 62.3396 189.589C62.4176 193.14 61.9126 196.709 62.7476 200.247C63.1996 202.162 63.3726 204.141 63.7036 206.086C63.8716 207.074 63.3096 209.075 62.6266 209.318C62.0965 209.474 61.5367 209.499 60.9948 209.391C60.4529 209.284 59.9451 209.047 59.5146 208.701C59.3256 208.577 59.1986 208.363 59.0146 208.22C57.2727 206.643 56.0277 204.593 55.4316 202.32C54.6703 199.846 54.0408 197.334 53.5456 194.794C53.0346 192.536 52.7116 190.231 52.1156 187.994C51.7156 186.481 51.1656 184.949 49.4326 184.294C48.1976 183.826 48.0686 183.877 47.9886 185.157C47.891 187.955 48.3488 190.745 49.3356 193.366C50.5603 197.394 52.2844 201.253 54.4676 204.853C55.8086 206.923 57.3416 208.875 58.5796 211.001C58.9844 211.917 59.6866 212.67 60.5726 213.138C61.4585 213.606 62.4764 213.761 63.4616 213.579L63.4646 213.581ZM81.4676 242.204C82.0066 244.442 82.5076 246.69 83.0916 248.916C83.9826 252.31 84.9676 255.68 85.8416 259.079C86.6256 262.126 88.3256 264.886 88.6286 268.079C88.6416 268.213 88.7236 268.438 88.8036 268.452C89.8816 268.646 91.0956 269.186 92.0096 268.871C92.785 268.646 93.5882 268.532 94.3956 268.531C95.7956 268.431 96.5326 267.706 95.9376 266.536C95.5953 265.71 95.4684 264.81 95.5686 263.922C95.5246 259.616 95.5576 255.309 95.5446 251.002C95.5396 249.302 94.4826 248.421 93.1376 249.202C92.7819 249.491 92.49 249.85 92.2802 250.258C92.0703 250.665 91.9472 251.112 91.9186 251.569C91.8545 253.13 91.9551 254.692 92.2186 256.232C92.6936 259.583 92.6186 263.012 92.7836 266.409C92.8236 267.238 92.7136 267.946 91.7126 268.05C90.9216 268.132 90.2556 268.064 89.9846 267.056C89.6166 265.684 88.9106 264.388 88.6536 263.003C87.6796 257.758 85.9156 252.717 84.7716 247.503C83.9126 243.591 83.2026 239.661 82.6986 235.719C82.2924 231.723 82.1191 227.708 82.1796 223.692C82.1066 216.692 82.1596 209.692 82.1596 202.697C82.1596 202.159 82.3596 201.497 82.1226 201.104C81.3526 199.804 81.8516 198.441 81.6996 197.12C81.5386 195.72 81.3806 194.326 81.2386 192.928C81.0736 191.301 80.9816 189.664 80.7556 188.046C80.5709 186.982 80.3261 185.93 80.0226 184.894C79.3559 182.325 78.6816 179.758 77.9996 177.194C77.9319 177.01 77.8465 176.834 77.7446 176.667C77.5816 176.83 77.3286 176.967 77.2736 177.162C77.159 177.588 77.0969 178.027 77.0886 178.469C77.1737 179.387 77.1597 180.312 77.0466 181.228C76.4291 184.06 76.1605 186.956 76.2466 189.853C76.1946 195.86 75.7366 201.883 76.5756 207.893C76.9806 210.793 76.9036 213.759 77.0896 216.693C77.1896 218.324 77.3156 219.961 77.5586 221.576C77.9586 224.239 78.4586 226.889 78.9306 229.541C79.3026 231.613 79.7096 233.679 80.0946 235.748C80.4796 237.817 80.8556 239.893 81.4666 242.197L81.4676 242.204ZM79.1586 271.283C78.7019 271.214 78.2369 271.221 77.7826 271.304C75.1316 272.304 72.3186 271.431 69.5976 272.114C68.0495 272.419 66.5474 272.923 65.1286 273.614C64.9958 273.699 64.883 273.811 64.7982 273.944C64.7134 274.076 64.6586 274.226 64.6376 274.382C64.5926 275.996 64.5616 277.614 64.6316 279.226C64.6926 280.62 65.1316 281.026 66.4936 280.967C68.3556 280.88 70.2096 280.614 72.0716 280.534C76.5436 280.342 81.0176 280.18 85.4916 280.072C88.2586 280.005 91.0286 280.06 93.7966 280.06C94.2553 280.115 94.7193 280.11 95.1766 280.043C98.6206 279.064 102.135 279.656 105.603 279.668C108.01 279.677 108.01 279.968 108.015 277.643C108.015 276.951 108.041 276.257 108.005 275.567C108.021 275.203 107.936 274.842 107.761 274.524C106.256 272.556 104.53 271.193 101.769 271.242C94.3886 271.374 87.0046 271.287 79.1596 271.287L79.1586 271.283ZM183.039 115.237C183.451 114.806 183.834 114.347 184.183 113.863C186.59 110.017 188.967 106.153 191.366 102.302C191.66 101.83 191.675 101.683 191.083 101.35C189.199 100.292 187.391 99.096 185.583 97.912C184.694 97.331 184.116 97.753 183.756 98.479C183.316 99.366 183.149 100.394 182.678 101.259C180.76 104.779 178.846 108.304 176.778 111.736C175.756 113.647 174.386 115.35 172.739 116.758C171.58 117.658 170.381 118.497 169.209 119.375C165.921 121.84 162.682 124.375 159.322 126.737C158.39 127.392 158.142 127.737 158.682 128.805C159.222 129.873 159.611 130.435 160.811 129.663C161.236 129.508 161.696 129.471 162.142 129.557C162.621 129.583 163.101 129.502 163.545 129.318C163.989 129.134 164.386 128.853 164.707 128.495C165.044 128.074 165.43 127.695 165.856 127.364C170.539 124.382 175.277 121.482 179.913 118.43C181.06 117.473 182.108 116.404 183.041 115.237H183.039ZM73.8516 189.337C74.0056 189.093 74.2886 188.852 74.2936 188.605C74.2064 185.814 74.3556 183.021 74.7396 180.255C75.1016 178.365 75.1186 176.41 75.3196 174.488C75.3996 173.724 74.8476 172.923 74.1846 172.947C73.5541 173.056 72.9692 173.347 72.5015 173.783C72.0338 174.22 71.7037 174.783 71.5516 175.405C71.2196 178.35 70.7006 181.297 70.6636 184.249C70.5576 192.644 70.4316 201.049 71.0876 209.43C71.2036 210.907 71.3136 212.391 71.5596 213.85C72.1266 217.217 72.7966 220.566 73.3856 223.93C74.0266 227.592 74.4346 231.306 75.2806 234.918C76.6706 240.851 78.2159 246.746 79.9166 252.601C81.4166 257.724 83.2836 262.738 84.9006 267.829C84.9275 268.01 84.99 268.183 85.0845 268.339C85.1789 268.496 85.3035 268.632 85.4509 268.74C85.5984 268.847 85.7657 268.925 85.9434 268.967C86.121 269.01 86.3053 269.017 86.4856 268.988C87.2126 268.97 87.4426 268.84 87.0496 268.063C86.2383 266.562 85.541 265.002 84.9636 263.396C83.9386 260.275 83.0406 257.11 82.1766 253.939C81.3456 250.891 80.6576 247.805 79.8466 244.752C78.8786 241.112 78.2626 237.398 77.4536 233.732C76.5586 229.679 76.0456 225.576 75.2846 221.511C74.798 218.586 74.4815 215.635 74.3366 212.674C74.0926 209.13 73.9376 205.58 73.8716 202.025C73.7936 197.951 73.8536 193.875 73.8536 189.338L73.8516 189.337ZM185.582 95.1539C185.87 95.5146 186.201 95.8383 186.569 96.1179C188.297 97.1299 190.02 98.1649 191.829 99.0099C192.253 99.2099 193.271 99.5919 193.57 98.3179C193.739 97.5999 194.534 97.0469 194.97 96.3699C196.838 93.4849 198.786 90.6419 199.55 87.1969C199.95 85.3839 200.674 83.6759 199.941 81.7079C199.729 80.9835 199.323 80.331 198.767 79.8212C198.21 79.3115 197.525 78.9641 196.785 78.817C195.956 78.6058 195.081 78.6745 194.296 79.0124C193.511 79.3502 192.86 79.9383 192.444 80.6849C190.983 82.8142 189.754 85.0939 188.78 87.485C187.848 89.938 186.657 92.2929 185.58 95.153L185.582 95.1539ZM170.805 106.239C170.959 105.919 171.239 105.601 171.247 105.277C171.211 102.268 170.773 99.2779 169.947 96.3849C169.795 95.6573 169.385 95.0095 168.792 94.5619C167.643 93.6809 167.108 93.8619 166.664 95.2619C165.55 98.4872 164.23 101.637 162.712 104.693C161.074 108.212 158.369 110.693 155.366 112.911C152.59 114.959 152.322 115.811 153.987 118.96C154.882 120.653 154.954 120.686 156.536 119.58C158.685 118.08 160.865 116.611 162.928 114.996C164.104 114.025 165.188 112.948 166.167 111.778C167.687 110.05 169.114 108.241 170.812 106.236L170.805 106.239ZM342.323 315.152C341.271 315.768 340.23 316.401 339.166 316.995C336.65 318.48 333.999 319.723 331.248 320.707C330.981 320.796 330.781 321.089 330.548 321.288C330.835 321.364 331.131 321.406 331.429 321.414C332.01 321.364 332.585 321.167 333.162 321.166C342.155 321.149 351.149 321.149 360.143 321.166C360.731 321.166 361.318 321.325 361.907 321.336C362.191 321.293 362.466 321.203 362.722 321.071C362.573 320.932 362.412 320.808 362.24 320.701C358.459 318.672 355.034 316.04 352.1 312.909C351.315 312.117 350.609 311.252 349.989 310.326C349.383 309.426 348.752 309.912 348.22 310.226C347.707 310.526 347.367 311.109 346.892 311.494C345.46 312.657 344 313.784 342.32 315.156L342.323 315.152ZM49.8446 199.499C48.6442 197.005 47.5933 194.442 46.6976 191.824C46.2126 190.137 45.5086 188.307 46.1336 186.424C46.1375 186.322 46.1148 186.221 46.0678 186.131C46.0208 186.04 45.9511 185.963 45.8656 185.908C45.7618 185.886 45.6542 185.891 45.5527 185.922C45.4512 185.952 45.3593 186.009 45.2856 186.085C45.0636 186.526 44.9686 187.029 44.7606 187.479C43.7926 189.568 43.9606 191.795 43.7876 194.01C43.6477 196.665 44.4971 199.278 46.1716 201.344C48.4026 204.431 50.7166 207.457 53.0036 210.503C53.8413 211.646 55.0929 212.415 56.4906 212.647C56.6906 212.683 57.0816 212.605 57.0966 212.526C57.1606 212.266 57.1249 211.992 56.9966 211.757C56.4966 211.105 55.8626 210.549 55.3966 209.875C53.1282 206.657 51.2636 203.173 49.8446 199.5V199.499ZM124.176 137.172C123.523 139.293 123.718 141.472 123.721 143.641C123.721 144.941 123.739 144.893 125.121 144.551C126.316 144.265 127.526 144.04 128.746 143.879C129.846 143.726 131.31 144.069 131.978 143.479C132.689 142.849 132.654 141.379 132.943 140.272C132.965 140.13 132.998 139.99 133.043 139.853C133.843 138.084 133.778 135.783 136.084 134.94C136.156 134.914 136.219 134.627 136.163 134.54C136.063 134.385 135.852 134.172 135.716 134.19C134.856 134.306 134.009 134.538 133.148 134.62C131.142 134.65 129.142 134.844 127.168 135.199C126.194 135.46 124.432 134.829 124.175 137.172H124.176ZM92.5506 216.817C91.7346 218.455 91.3586 220.278 91.4596 222.105C91.536 225.148 91.8052 228.182 92.2656 231.191C92.5904 233.881 92.7574 236.588 92.7656 239.297C92.8026 240.314 93.1106 240.842 94.1996 240.837C95.3306 240.837 95.6236 240.205 95.5536 239.237C95.4036 237.147 95.1416 235.06 95.1146 232.968C95.0496 227.968 95.0676 222.968 95.1146 217.973C95.1236 217.039 94.6656 215.988 95.5356 215.147C95.6056 215.079 95.4866 214.672 95.3476 214.575C95.2501 214.534 95.144 214.519 95.0391 214.531C94.9342 214.542 94.8339 214.58 94.7476 214.641C94.0696 215.266 93.4306 215.933 92.5476 216.817H92.5506ZM161.57 122.402C163.491 121.096 165.449 119.84 167.323 118.47C168.935 117.291 170.461 115.993 172.007 114.726C172.161 114.627 172.294 114.497 172.397 114.345C172.5 114.193 172.57 114.021 172.604 113.841C172.638 113.66 172.635 113.475 172.594 113.296C172.554 113.116 172.478 112.947 172.37 112.799C172.029 111.765 171.809 110.695 171.713 109.61C171.603 109.314 171.451 109.035 171.263 108.781C171.077 109.044 170.908 109.321 170.704 109.568C169.186 111.403 167.887 113.506 166.085 115.002C163.121 117.461 159.831 119.528 156.673 121.753C156.403 121.904 156.194 122.143 156.08 122.43C155.966 122.718 155.954 123.035 156.047 123.33C156.318 124.139 156.652 124.925 157.047 125.682C157.161 125.737 157.285 125.767 157.412 125.768C157.539 125.769 157.664 125.743 157.78 125.69C158.608 124.24 160.293 123.806 161.572 122.401L161.57 122.402ZM109.172 319.771C112.238 319.771 115.305 319.769 118.372 319.765C118.586 319.742 118.798 319.697 119.004 319.63C118.804 319.522 118.604 319.404 118.397 319.307C116.62 318.59 114.891 317.763 113.219 316.83C111.206 315.488 109.276 314.027 107.439 312.455C106.909 312.021 106.551 311.927 106.295 312.51C105.032 315.114 102.925 317.215 100.318 318.471C99.8703 318.708 99.4516 318.995 99.0696 319.327C98.9056 319.476 98.9126 319.813 98.8416 320.065C99.0011 320.005 99.1644 319.956 99.3306 319.918C99.6899 319.842 100.055 319.796 100.422 319.778C103.183 319.767 105.945 319.772 109.168 319.772L109.172 319.771ZM331.705 273.6C332.194 272.8 332.69 272.009 333.17 271.206C333.325 270.947 333.442 270.664 333.576 270.392C333.181 270.23 332.721 269.847 332.403 269.942C330.041 270.642 327.587 271.269 325.995 273.358C325.513 274.068 325.185 274.871 325.031 275.715C324.374 278.639 327.363 281.621 329.731 282.645C330.533 282.838 331.362 282.897 332.185 282.821C332.004 282.187 331.785 281.56 331.651 280.921C331.545 280.412 331.489 279.894 331.486 279.375C331.439 277.449 331.514 275.522 331.709 273.606L331.705 273.6ZM294.77 321.617C297.683 321.617 300.596 321.615 303.51 321.611C303.725 321.589 303.937 321.545 304.143 321.479C303.943 321.371 303.749 321.247 303.543 321.158C303.158 320.977 302.76 320.824 302.354 320.7C299.246 319.879 296.09 319.208 293.48 317.121C293.122 316.841 292.682 316.688 292.228 316.686C291.775 316.684 291.333 316.833 290.974 317.11C288.508 318.827 285.733 320.051 282.803 320.715C282.552 320.764 282.359 321.115 282.14 321.323C282.424 321.46 282.728 321.555 283.04 321.604C286.796 321.623 290.553 321.617 294.771 321.617H294.77ZM105.248 231.817C105.094 232.751 104.931 233.684 104.788 234.617C104.185 238.592 102.737 242.391 100.541 245.758C100.449 245.916 100.365 246.078 100.29 246.245C100.505 246.282 100.79 246.426 100.924 246.339C102.037 245.614 103.981 245.834 103.924 243.756C105.734 240.724 106.79 237.302 107.005 233.778C107.279 231.122 106.764 228.387 106.64 225.685C106.604 224.9 106.047 225.065 105.68 225.147C105.029 225.293 104.506 225.847 104.815 226.463C105.615 228.063 105.067 229.732 105.244 231.817H105.248ZM337.475 272.446C337.05 272.255 336.366 271.798 336.243 271.917C335.507 272.633 334.393 273.454 334.343 274.292C334.272 276.608 334.413 278.926 334.766 281.217C334.811 281.384 334.898 281.537 335.017 281.663C335.137 281.789 335.285 281.883 335.45 281.937C335.615 281.991 335.79 282.004 335.961 281.974C336.132 281.943 336.292 281.871 336.429 281.764C336.987 281.377 337.773 280.856 337.847 280.312C338.194 277.775 339.461 275.179 337.471 272.446H337.475ZM103.632 198.807C103.351 198.3 103.016 197.827 102.632 197.394C102.347 197.13 101.732 196.876 101.47 197.013C101.259 197.135 101.078 197.301 100.939 197.5C100.799 197.7 100.704 197.927 100.662 198.166C100.537 201.645 99.6338 205.051 98.0196 208.135C97.9106 208.335 98.0256 208.651 98.0366 208.913C98.2986 208.839 98.6826 208.851 98.8036 208.679C99.7596 207.32 100.566 205.844 101.613 204.564C102.951 202.927 103.259 200.938 103.629 198.808L103.632 198.807ZM107.322 241.745C107.707 240.982 108.095 240.221 108.476 239.456C110.062 236.267 109.912 232.833 109.837 229.423C109.764 228.634 109.579 227.86 109.289 227.123C109.214 226.891 108.876 226.745 108.659 226.56C108.598 226.842 108.429 227.152 108.493 227.402C108.948 229.483 108.977 231.634 108.578 233.726C108.214 236.271 108.014 238.772 106.692 241.049C106.616 241.18 106.098 242.049 107.322 241.749V241.745ZM153.491 210.816C152.138 211.432 150.781 212.038 149.439 212.675C149.353 212.725 149.281 212.795 149.227 212.879C149.174 212.963 149.141 213.058 149.132 213.157C149.14 213.306 149.386 213.579 149.5 213.565C151.346 213.354 153.25 214.065 155.069 213.156C155.492 212.945 156.121 213.243 156.053 212.356C155.998 211.63 155.923 210.996 155.098 210.827C154.563 210.781 154.026 210.777 153.491 210.814V210.816ZM137.563 211.045C137.655 209.519 136.058 210.206 135.463 209.513C135.336 209.365 134.479 209.844 133.963 210.034C133.236 210.3 132.495 210.534 131.788 210.847C131.528 210.962 131.35 211.261 131.135 211.477C131.378 211.577 131.628 211.663 131.882 211.733C132.632 211.976 133.412 212.12 134.2 212.162C135.335 212.099 136.653 212.741 137.569 211.045H137.563ZM154.421 206.197C154.344 206.697 154.052 207.303 154.241 207.658C154.625 208.167 155.091 208.609 155.62 208.967C155.759 208.458 155.939 207.956 156.028 207.438C156.18 206.561 155.928 205.996 154.421 206.197ZM175.889 55.457C176.043 56.309 176.189 57.1629 176.362 58.0099C176.389 58.1409 176.573 58.24 176.684 58.354C176.849 58.2089 177.003 58.0526 177.147 57.886C176.264 56.757 177.28 55.7109 177.261 54.6309C177.217 54.3646 177.137 54.1057 177.021 53.8619L176.535 54.3479C176.217 54.648 175.992 55.0329 175.887 55.457H175.889ZM135.951 206.197C135.505 207.203 136.046 207.557 136.928 207.551C137.072 207.511 137.204 207.434 137.311 207.327C137.417 207.221 137.494 207.089 137.535 206.944C137.541 206.058 137.187 205.517 135.95 206.194L135.951 206.197Z" fill="black"/>
<path fill-rule="evenodd" clip-rule="evenodd" d="M93.2159 52.2201C93.2181 51.2923 92.8575 50.4005 92.2109 49.7351C91.8958 49.4099 91.5186 49.1511 91.1018 48.9742C90.6849 48.7973 90.2368 48.7058 89.7839 48.7051H57.1839C56.7313 48.7059 56.2833 48.7975 55.8666 48.9744C55.45 49.1513 55.073 49.41 54.7579 49.7351C54.1114 50.4005 53.7507 51.2923 53.7529 52.2201V71.5521C53.7507 72.4798 54.1114 73.3717 54.7579 74.0371C55.073 74.3622 55.45 74.6208 55.8666 74.7977C56.2833 74.9746 56.7313 75.0662 57.1839 75.0671H86.3529L93.2159 82.0971V52.2201Z" fill="#00D478"/>
<path d="M83.9189 61.8881C83.4769 61.1061 83.2759 60.4141 84.0449 59.9381C84.7889 59.4781 85.5779 59.0661 86.4449 59.7841C87.1699 60.3841 87.5879 61.5261 87.1339 62.1121C86.4159 63.0401 85.4439 62.7821 84.5229 62.4711C84.3289 62.4101 84.1959 62.1641 83.9189 61.8881Z" fill="white"/>
<path d="M67.8786 60.849C67.9496 59.428 68.7946 59.379 69.6556 59.486C70.0236 59.5664 70.3637 59.7427 70.6416 59.997C71.5236 60.714 70.7926 61.434 70.5336 62.087C70.2116 62.897 69.3806 62.804 68.7436 62.667C67.9646 62.499 67.7526 61.836 67.8786 60.849Z" fill="white"/>
<path d="M62.2207 59.5788C62.3877 59.8998 62.3717 60.1788 62.5017 60.2988C63.4017 61.1328 61.9487 61.4988 62.1527 62.1858C61.3793 62.1748 60.614 62.0262 59.8927 61.7468C59.5927 61.5698 59.5737 60.4998 59.7927 59.9918C60.2537 58.9198 61.1647 58.9178 62.2207 59.5788Z" fill="white"/>
<path d="M78.4947 60.3881C78.4417 61.1331 78.5696 61.8161 78.2886 62.1171C78.0837 62.2949 77.8419 62.4249 77.5805 62.4977C77.3192 62.5705 77.045 62.5843 76.7776 62.5381C76.0536 62.3651 75.3776 60.8461 75.7636 60.2871C75.9366 60.072 76.1506 59.8933 76.3932 59.7615C76.6357 59.6297 76.902 59.5473 77.1766 59.5191C77.5996 59.4881 78.0577 59.9261 78.4947 60.3881Z" fill="white"/>
<path fill-rule="evenodd" clip-rule="evenodd" d="M236.695 3.515C236.693 2.58724 237.054 1.69541 237.7 1.03C238.015 0.704785 238.393 0.446069 238.809 0.269154C239.226 0.0922381 239.674 0.000715685 240.127 0H272.727C273.18 0.000849297 273.628 0.0924366 274.045 0.269348C274.461 0.44626 274.838 0.704905 275.153 1.03C275.8 1.69541 276.161 2.58724 276.158 3.515V22.847C276.161 23.7748 275.8 24.6666 275.153 25.332C274.838 25.6571 274.461 25.9157 274.045 26.0927C273.628 26.2696 273.18 26.3612 272.727 26.362H243.558L236.695 33.392V3.515Z" fill="#00D478"/>
<path d="M245.991 13.1831C246.433 12.4011 246.634 11.7091 245.865 11.2331C245.121 10.7731 244.332 10.3611 243.465 11.0791C242.74 11.6791 242.322 12.8211 242.776 13.4071C243.494 14.3351 244.466 14.077 245.387 13.766C245.58 13.705 245.715 13.4591 245.991 13.1831Z" fill="white"/>
<path d="M262.034 12.144C261.963 10.723 261.118 10.674 260.257 10.781C259.889 10.8614 259.549 11.0377 259.271 11.292C258.389 12.009 259.119 12.729 259.379 13.382C259.701 14.192 260.532 14.099 261.169 13.962C261.945 13.794 262.157 13.131 262.034 12.144Z" fill="white"/>
<path d="M267.69 10.874C267.523 11.195 267.539 11.474 267.409 11.594C266.509 12.428 267.962 12.794 267.758 13.481C268.532 13.4701 269.297 13.3215 270.018 13.042C270.318 12.865 270.337 11.795 270.118 11.287C269.655 10.215 268.745 10.213 267.69 10.874Z" fill="white"/>
<path d="M251.42 11.6831C251.473 12.4281 251.345 13.111 251.626 13.412C251.831 13.5898 252.073 13.7198 252.334 13.7926C252.596 13.8655 252.87 13.8793 253.137 13.8331C253.861 13.6601 254.537 12.1411 254.151 11.5821C253.978 11.3669 253.764 11.1882 253.522 11.0564C253.279 10.9246 253.013 10.8422 252.738 10.8141C252.311 10.7831 251.856 11.2211 251.42 11.6831Z" fill="white"/>
<path d="M33.167 124.088C37.033 124.088 40.167 120.282 40.167 115.588C40.167 110.893 37.033 107.088 33.167 107.088C29.301 107.088 26.167 110.893 26.167 115.588C26.167 120.282 29.301 124.088 33.167 124.088Z" fill="#FF8000"/>
<path d="M125.667 14.0879C129.257 14.0879 132.167 10.9539 132.167 7.08789C132.167 3.2219 129.257 0.0878906 125.667 0.0878906C122.077 0.0878906 119.167 3.2219 119.167 7.08789C119.167 10.9539 122.077 14.0879 125.667 14.0879Z" fill="#FF8000"/>
<path d="M338.166 34.0879C343.689 34.0879 348.166 28.9392 348.166 22.5879C348.166 16.2366 343.689 11.0879 338.166 11.0879C332.643 11.0879 328.166 16.2366 328.166 22.5879C328.166 28.9392 332.643 34.0879 338.166 34.0879Z" fill="#FF8000"/>
<path d="M41.167 261.088C44.4807 261.088 47.167 257.506 47.167 253.088C47.167 248.67 44.4807 245.088 41.167 245.088C37.8533 245.088 35.167 248.67 35.167 253.088C35.167 257.506 37.8533 261.088 41.167 261.088Z" fill="#FF8000"/>
<path d="M352.666 155.088C356.808 155.088 360.166 150.835 360.166 145.588C360.166 140.341 356.808 136.088 352.666 136.088C348.524 136.088 345.166 140.341 345.166 145.588C345.166 150.835 348.524 155.088 352.666 155.088Z" fill="#FF8000"/>
<path d="M213.167 227.088H192.167C191.062 227.088 190.167 227.983 190.167 229.088V266.088C190.167 267.192 191.062 268.088 192.167 268.088H213.167C214.272 268.088 215.167 267.192 215.167 266.088V229.088C215.167 227.983 214.272 227.088 213.167 227.088Z" fill="#1271D8"/>
<path d="M201.667 234.088C215.198 234.088 226.167 222.671 226.167 208.588C226.167 194.505 215.198 183.088 201.667 183.088C188.136 183.088 177.167 194.505 177.167 208.588C177.167 222.671 188.136 234.088 201.667 234.088Z" fill="#1271D8"/>
</svg>
