<svg width="58" height="58" viewBox="0 0 58 58" fill="none" xmlns="http://www.w3.org/2000/svg">
<path d="M58 15C58 6.71573 51.2843 0 43 0H14V58H44C51.732 58 58 51.732 58 44V15Z" fill="#FFD501"/>
<path d="M3.30201 12H22.948C24.7716 12 26.25 13.4784 26.25 15.302C26.25 17.1256 24.7716 18.604 22.948 18.604H3.30201C1.47842 18.604 0 17.1256 0 15.302C0 13.4784 1.47831 12 3.30201 12ZM35.1556 47H3.30201C1.47842 47 0 45.5216 0 43.698C0 41.8744 1.47842 40.396 3.30201 40.396H35.1556C36.9792 40.396 38.4576 41.8744 38.4576 43.698C38.4576 45.5216 36.9793 47 35.1556 47ZM35.1556 32.802H3.30201C1.47842 32.802 0 31.3236 0 29.5C0 27.6764 1.47842 26.198 3.30201 26.198H35.1556C36.9792 26.198 38.4576 27.6764 38.4576 29.5C38.4576 31.3236 36.9793 32.802 35.1556 32.802Z" fill="#333333"/>
</svg>
