<svg width="347" height="406" viewBox="0 0 347 406" fill="none" xmlns="http://www.w3.org/2000/svg">
<path d="M126.426 319.264H113.479V354.389H126.426V319.264Z" fill="#FFD501" fill-opacity="0.33"/>
<path d="M237.408 319.264H224.461V354.389H237.408V319.264Z" fill="#FFD501" fill-opacity="0.33"/>
<path opacity="0.7" d="M310.02 350.555C308.103 339.004 301.901 328.599 292.65 321.414C283.4 314.23 271.781 310.792 260.108 311.788C248.436 312.784 237.567 318.139 229.669 326.786C221.77 335.434 217.422 346.739 217.49 358.448V359.132C215.768 359.393 214.062 359.758 212.384 360.226C210.234 351.669 205.475 343.992 198.767 338.258C192.059 332.523 183.732 329.015 174.941 328.22C166.15 327.425 157.329 329.381 149.7 333.818C142.07 338.255 136.01 344.953 132.357 352.985C128.592 351.533 124.639 350.63 120.617 350.304C119.975 346.664 118.899 343.114 117.412 339.73C116.712 329.054 112.012 319.035 104.249 311.67C96.4853 304.305 86.2294 300.136 75.5268 299.994C64.8242 299.853 54.4615 303.749 46.5059 310.906C38.5502 318.063 33.5863 327.955 32.6044 338.608C30.4006 343.273 28.9932 348.273 28.4404 353.402C18.699 357.453 10.8091 364.975 6.29997 374.509C1.7908 384.043 0.983468 394.911 4.03445 405.006H345.001C346.779 399.118 347.258 392.914 346.406 386.822C345.554 380.731 343.391 374.896 340.066 369.721C336.741 364.545 332.332 360.152 327.145 356.843C321.957 353.534 316.113 351.389 310.016 350.555H310.02Z" fill="url(#paint0_linear_1_135)"/>
<path d="M304.312 358.225C304.312 382.377 284.722 401.958 260.557 401.958C236.391 401.958 216.802 382.377 216.802 358.225C216.802 334.072 236.391 314.492 260.557 314.492C284.722 314.492 304.312 334.072 304.312 358.225Z" fill="#FDFDFD" stroke="#F0F0F0" stroke-width="2"/>
<path d="M126.426 319.264H113.475L115.787 303.552H124.113L126.426 319.264Z" fill="black"/>
<g opacity="0.1">
<path opacity="0.1" d="M115.145 309.79H124.758L124.113 305.398H115.787L115.145 309.79Z" fill="black"/>
</g>
<path d="M237.407 319.264H224.455L226.767 303.552H235.093L237.407 319.264Z" fill="black"/>
<g opacity="0.1">
<path opacity="0.1" d="M226.127 309.79H235.741L235.095 305.398H226.769L226.127 309.79Z" fill="black"/>
</g>
<path d="M168.51 319.264H155.559L157.87 303.552H166.196L168.51 319.264Z" fill="black"/>
<g opacity="0.1">
<path opacity="0.1" d="M157.224 309.79H166.843L166.198 305.398H157.872L157.224 309.79Z" fill="black"/>
</g>
<path d="M194.863 319.264H181.911L184.223 303.552H192.549L194.863 319.264Z" fill="black"/>
<g opacity="0.1">
<path opacity="0.1" d="M183.583 309.79H193.202L192.551 305.398H184.225L183.583 309.79Z" fill="black"/>
</g>
<path d="M218.911 173.67H126.426V177.367H218.911V173.67Z" fill="#1271D8"/>
<path d="M233.21 115.262C232.721 114.723 232.125 114.292 231.459 113.997C230.794 113.702 230.074 113.55 229.346 113.55C228.618 113.55 227.898 113.702 227.233 113.997C226.567 114.292 225.971 114.723 225.482 115.262C222.61 118.495 220.172 122.089 218.232 125.953C211.938 138.081 208.682 151.555 208.742 165.217V307.517H249.67V164.629C249.72 151.34 246.621 138.229 240.625 126.368C238.682 122.34 236.186 118.602 233.21 115.262V115.262Z" stroke="black"/>
<path d="M115.847 115.262C116.336 114.723 116.932 114.292 117.597 113.997C118.263 113.702 118.983 113.55 119.711 113.55C120.439 113.55 121.159 113.702 121.824 113.997C122.489 114.292 123.086 114.723 123.574 115.262C126.447 118.495 128.884 122.089 130.825 125.953C137.119 138.081 140.375 151.555 140.315 165.217V307.517H99.3761V164.629C99.3262 151.34 102.426 138.229 108.421 126.368C110.359 122.334 112.859 118.595 115.847 115.262V115.262Z" stroke="black"/>
<path d="M99.6056 167.664L109.314 167.709V179.679H99.6056V167.664Z" fill="#1271D8"/>
<path d="M239.719 167.664L249.433 167.709V179.679H239.719V167.664Z" fill="#1271D8"/>
<g opacity="0.591">
<path opacity="0.591" d="M130.809 125.768C128.87 121.903 126.432 118.309 123.558 115.077C122.797 114.237 121.781 113.669 120.667 113.459C119.552 113.249 118.399 113.41 117.385 113.916C117.969 114.208 118.498 114.601 118.945 115.077C121.817 118.31 124.255 121.904 126.196 125.768C132.489 137.897 135.746 151.37 135.685 165.033V307.324H140.31V165.049C140.37 151.38 137.109 137.9 130.809 125.768Z" fill="#F5DACC"/>
</g>
<g opacity="0.593">
<path opacity="0.593" d="M221.912 126.161C223.851 122.295 226.289 118.701 229.163 115.47C229.667 114.927 230.276 114.492 230.953 114.191C229.953 113.753 228.84 113.641 227.773 113.87C226.705 114.1 225.737 114.66 225.005 115.47C222.133 118.703 219.695 122.297 217.754 126.161C211.461 138.289 208.204 151.762 208.265 165.425V307.717H212.429V165.448C212.363 151.778 215.618 138.296 221.913 126.161H221.912Z" fill="#F9E9E0"/>
</g>
<path d="M130.59 167.664L140.299 167.709V179.679H130.59V167.664Z" fill="#1271D8"/>
<path d="M208.736 167.664L218.45 167.709V179.679H208.736V167.664Z" fill="#1271D8"/>
<path d="M168.504 319.264H155.557V354.389H168.504V319.264Z" fill="#FFD501" fill-opacity="0.33"/>
<path d="M194.864 319.264H181.917V354.389H194.864V319.264Z" fill="#FFD501" fill-opacity="0.33"/>
<path d="M179.655 3.69618C178.978 2.89269 178.135 2.24675 177.182 1.80361C176.23 1.36047 175.192 1.13086 174.141 1.13086C173.091 1.13086 172.053 1.36047 171.1 1.80361C170.148 2.24675 169.304 2.89269 168.628 3.69618C164.513 8.57869 161.035 13.9642 158.279 19.7233C149.264 38.0333 144.627 58.1854 144.732 78.592V306.937H203.146V77.6694C203.237 57.8304 198.824 38.2292 190.239 20.3418C186.192 12.0344 182.5 6.87077 179.655 3.69618Z" stroke="black"/>
<path d="M181.789 29.0599H165.279C161.422 29.0599 158.295 32.1852 158.295 36.0405C158.295 39.8957 161.422 43.021 165.279 43.021H181.789C185.647 43.021 188.774 39.8957 188.774 36.0405C188.774 32.1852 185.647 29.0599 181.789 29.0599Z" fill="#F6DBCD"/>
<path d="M212.121 369.869C212.127 376.329 210.598 382.698 207.659 388.452C204.72 394.206 200.456 399.179 195.217 402.963H147.275C141.6 398.863 137.074 393.376 134.129 387.027C131.185 380.678 129.921 373.679 130.458 366.701C130.996 359.724 133.317 353.001 137.199 347.177C141.082 341.353 146.395 336.624 152.631 333.441C158.867 330.258 165.816 328.73 172.812 329.001C179.809 329.272 186.618 331.335 192.588 334.991C198.558 338.647 203.489 343.774 206.909 349.881C210.328 355.988 212.121 362.871 212.116 369.869H212.121Z" fill="#FDFDFD" stroke="#F0F0F0" stroke-width="2"/>
<path d="M262.807 399.284C262.807 400.506 262.753 401.716 262.645 402.912C262.649 402.929 262.649 402.946 262.645 402.963H181.226C181.114 401.751 181.058 400.523 181.058 399.289C181.051 389.513 184.555 380.06 190.932 372.648C197.309 365.236 206.136 360.359 215.807 358.903C217.828 358.599 219.869 358.445 221.913 358.442C222.956 358.442 223.995 358.481 225.022 358.554C232.348 359.115 239.387 361.636 245.401 365.855C251.415 370.073 256.181 375.833 259.199 382.528C259.368 382.898 259.53 383.274 259.681 383.65C261.745 388.604 262.808 393.917 262.807 399.283V399.284Z" fill="#FDFDFD" stroke="#F0F0F0" stroke-width="2"/>
<path d="M340.055 391.112C340.06 395.125 339.472 399.117 338.307 402.959H260.073C258.182 396.677 257.822 390.034 259.024 383.584C259.091 383.231 259.158 382.872 259.237 382.524C261.206 373.39 266.247 365.207 273.519 359.337C280.792 353.467 289.857 350.265 299.205 350.264C300.49 350.264 301.753 350.321 303.008 350.444C303.569 350.489 304.13 350.556 304.692 350.629C314.487 351.962 323.468 356.798 329.969 364.241C336.471 371.685 340.054 381.231 340.055 391.112Z" fill="#FDFDFD" stroke="#F0F0F0" stroke-width="2"/>
<g opacity="0.7">
<path opacity="0.7" d="M324.521 318.943C328.662 318.943 332.018 315.588 332.018 311.449C332.018 307.311 328.662 303.956 324.521 303.956C320.38 303.956 317.024 307.311 317.024 311.449C317.024 315.588 320.38 318.943 324.521 318.943Z" fill="url(#paint1_linear_1_135)"/>
</g>
<path d="M324.522 318.393C328.359 318.393 331.47 315.284 331.47 311.449C331.47 307.614 328.359 304.505 324.522 304.505C320.685 304.505 317.575 307.614 317.575 311.449C317.575 315.284 320.685 318.393 324.522 318.393Z" fill="#1271D8"/>
<g opacity="0.7">
<path opacity="0.7" d="M8.98471 346.166C13.9468 346.166 17.9694 342.145 17.9694 337.185C17.9694 332.225 13.9468 328.205 8.98471 328.205C4.02259 328.205 0 332.225 0 337.185C0 342.145 4.02259 346.166 8.98471 346.166Z" fill="url(#paint2_linear_1_135)"/>
</g>
<path d="M8.98387 345.762C13.7229 345.762 17.5646 341.922 17.5646 337.185C17.5646 332.448 13.7229 328.608 8.98387 328.608C4.24485 328.608 0.403122 332.448 0.403122 337.185C0.403122 341.922 4.24485 345.762 8.98387 345.762Z" fill="#1271D8"/>
<path opacity="0.661" d="M87.8657 125.162C89.4461 125.162 90.7273 123.881 90.7273 122.302C90.7273 120.722 89.4461 119.441 87.8657 119.441C86.2853 119.441 85.0041 120.722 85.0041 122.302C85.0041 123.881 86.2853 125.162 87.8657 125.162Z" fill="#21D478"/>
<path opacity="0.661" d="M281.401 260.473H278.859V257.932H277.821V260.473H275.273V261.516H277.821V264.056H278.859V261.516H281.401V260.473Z" fill="#21D478"/>
<path opacity="0.661" d="M55.7797 223.301H53.2316V220.754H52.1934V223.301H49.6535V224.339H52.1955V226.886H53.2336V224.339H55.7797V223.301Z" fill="#EA641E"/>
<g opacity="0.4">
<path opacity="0.4" d="M76.7702 168.443C75.8224 167.189 74.6344 166.137 73.2754 165.347C71.7162 164.439 69.9687 163.903 68.1688 163.78C66.3688 163.658 64.5647 163.951 62.8965 164.638C61.2283 165.325 59.741 166.387 58.5499 167.741C57.3589 169.096 56.4962 170.706 56.0288 172.448C55.5614 174.19 55.502 176.016 55.855 177.784C56.208 179.553 56.9641 181.216 58.0645 182.645C59.1648 184.074 60.5799 185.23 62.1999 186.024C63.8198 186.818 65.601 187.228 67.4052 187.223H68.1462C70.261 187.087 72.2998 186.383 74.0462 185.183C75.7927 183.983 77.1818 182.334 78.0661 180.409C78.9505 178.484 79.2972 176.356 79.0694 174.25C78.8416 172.144 78.0478 170.14 76.7722 168.448L76.7702 168.443Z" fill="url(#paint3_linear_1_135)"/>
</g>
<path opacity="0.2" d="M78.4963 175.51C78.4962 178.33 77.4215 181.044 75.4909 183.1C73.5603 185.155 70.9187 186.399 68.1034 186.577H67.3952C65.6941 186.576 64.0162 186.183 62.4912 185.43C60.9661 184.677 59.6347 183.584 58.5999 182.234C57.5651 180.885 56.8545 179.316 56.5232 177.648C56.1918 175.98 56.2485 174.259 56.689 172.617C57.1294 170.974 57.9416 169.455 59.063 168.177C60.1844 166.899 61.5849 165.895 63.1562 165.244C64.7276 164.593 66.4277 164.311 68.1251 164.422C69.8225 164.532 71.4719 165.031 72.9457 165.88C74.2303 166.626 75.3539 167.619 76.2514 168.803C77.7139 170.733 78.5005 173.09 78.4901 175.511L78.4963 175.51Z" fill="#EA641E"/>
<path opacity="0.1" d="M64.6658 168.476C64.0827 168.722 63.5197 169.012 62.9821 169.346C62.6297 169.538 62.3262 169.809 62.0951 170.137C61.9882 170.304 61.9315 170.499 61.9315 170.698C61.9315 170.896 61.9882 171.091 62.0951 171.259C62.2582 171.419 62.4539 171.542 62.6689 171.619C62.8839 171.696 63.1131 171.727 63.3409 171.707C63.7476 171.791 64.1693 171.766 64.5634 171.635C64.9575 171.504 65.3101 171.272 65.5858 170.962L66.5396 170.098C66.8706 169.795 67.2355 169.386 67.1009 168.976C67.0256 168.821 66.9118 168.688 66.7703 168.59C66.6288 168.491 66.4644 168.431 66.2929 168.415C65.4734 168.254 64.6235 168.404 63.9083 168.835" fill="#F55F44"/>
<path opacity="0.1" d="M60.6823 180.47C61.0047 180.47 61.2661 180.208 61.2661 179.886C61.2661 179.564 61.0047 179.303 60.6823 179.303C60.3598 179.303 60.0984 179.564 60.0984 179.886C60.0984 180.208 60.3598 180.47 60.6823 180.47Z" fill="#F55F44"/>
<path opacity="0.1" d="M72.5562 178.333C73.7404 178.333 74.7004 177.373 74.7004 176.19C74.7004 175.006 73.7404 174.047 72.5562 174.047C71.3721 174.047 70.4121 175.006 70.4121 176.19C70.4121 177.373 71.3721 178.333 72.5562 178.333Z" fill="#F55F44"/>
<path opacity="0.1" d="M76.2539 168.853C76.2467 169.412 76.0792 169.957 75.7712 170.423C75.4632 170.889 75.0277 171.257 74.5164 171.483C74.0052 171.709 73.4397 171.784 72.8873 171.698C72.3349 171.612 71.8189 171.37 71.4005 170.999C70.9821 170.628 70.6791 170.145 70.5273 169.608C70.3756 169.07 70.3816 168.5 70.5446 167.965C70.7077 167.431 71.0209 166.955 71.447 166.593C71.8731 166.231 72.3941 165.999 72.9482 165.925C74.2332 166.673 75.3569 167.668 76.2539 168.853Z" fill="#F55F44"/>
<path opacity="0.1" d="M76.4725 181.899C75.5186 183.257 74.2713 184.383 72.823 185.194C71.3746 186.004 69.7624 186.479 68.1056 186.583V186.117C68.1024 185.139 68.3724 184.18 68.885 183.347C69.3976 182.514 70.1327 181.84 71.0074 181.402C71.8822 180.963 72.8619 180.778 73.8365 180.865C74.811 180.953 75.7417 181.311 76.5239 181.899H76.4725Z" fill="#F55F44"/>
<g opacity="0.731">
<path opacity="0.731" d="M202.831 86.397H145.028V88.6408H202.831V86.397Z" fill="black"/>
</g>
<path d="M118.746 342.907C118.746 364.916 100.896 382.758 78.8748 382.758C56.8538 382.758 39.0031 364.916 39.0031 342.907C39.0031 320.898 56.8538 303.055 78.8748 303.055C100.896 303.055 118.746 320.898 118.746 342.907Z" fill="#FDFDFD" stroke="#F0F0F0" stroke-width="2"/>
<path d="M160.214 391.111C160.22 395.124 159.631 399.116 158.467 402.958H80.2206V402.93C78.381 396.847 77.9867 390.418 79.069 384.156C80.1513 377.894 82.6804 371.97 86.4553 366.856C90.2301 361.743 95.1465 357.58 100.814 354.698C106.481 351.817 112.742 350.297 119.1 350.259H119.353C120.498 350.259 121.634 350.306 122.759 350.399C126.622 350.713 130.419 351.58 134.034 352.974C141.742 355.943 148.369 361.176 153.042 367.984C157.716 374.792 160.216 382.855 160.214 391.111Z" fill="#FDFDFD" stroke="#F0F0F0" stroke-width="2"/>
<path d="M88.9827 402.964C89.1174 402.538 89.2356 402.111 89.3528 401.68C91.2135 394.724 91.2033 387.401 89.3233 380.451C87.4434 373.501 83.7602 367.17 78.6466 362.099C73.5329 357.029 67.1701 353.398 60.2017 351.574C53.2334 349.75 45.9067 349.798 38.9629 351.713C37.3371 352.159 35.7419 352.71 34.1874 353.362C24.8267 357.254 17.2454 364.482 12.9133 373.643C8.5811 382.805 7.80676 393.248 10.7404 402.948H88.9827V402.964Z" fill="#FDFDFD" stroke="#F0F0F0" stroke-width="2"/>
<defs>
<linearGradient id="paint0_linear_1_135" x1="174.516" y1="405.006" x2="174.516" y2="299.99" gradientUnits="userSpaceOnUse">
<stop stop-color="#808080" stop-opacity="0.251"/>
<stop offset="0.54" stop-color="#808080" stop-opacity="0.122"/>
<stop offset="1" stop-color="#808080" stop-opacity="0.102"/>
</linearGradient>
<linearGradient id="paint1_linear_1_135" x1="324.521" y1="318.943" x2="324.521" y2="303.956" gradientUnits="userSpaceOnUse">
<stop stop-color="#808080" stop-opacity="0.251"/>
<stop offset="0.54" stop-color="#808080" stop-opacity="0.122"/>
<stop offset="1" stop-color="#808080" stop-opacity="0.102"/>
</linearGradient>
<linearGradient id="paint2_linear_1_135" x1="8.98471" y1="346.166" x2="8.98471" y2="328.205" gradientUnits="userSpaceOnUse">
<stop stop-color="#808080" stop-opacity="0.251"/>
<stop offset="0.54" stop-color="#808080" stop-opacity="0.122"/>
<stop offset="1" stop-color="#808080" stop-opacity="0.102"/>
</linearGradient>
<linearGradient id="paint3_linear_1_135" x1="67.4062" y1="187.246" x2="67.4062" y2="163.777" gradientUnits="userSpaceOnUse">
<stop stop-color="#808080" stop-opacity="0.251"/>
<stop offset="0.54" stop-color="#808080" stop-opacity="0.122"/>
<stop offset="1" stop-color="#808080" stop-opacity="0.102"/>
</linearGradient>
</defs>
</svg>
